<?xml version="1.0" encoding="UTF-8" standalone="yes"?><svg xmlns="http://www.w3.org/2000/svg" xmlns:xlink="http://www.w3.org/1999/xlink" height="1166pt" style="width:2122px;height:1166px;" version="1.1" viewBox="0 0 2122 1166" width="2122pt"><defs><filter height="300%" id="f1" width="300%" x="-1" y="-1"><feGaussianBlur result="blurOut" stdDeviation="2.0"/><feColorMatrix in="blurOut" result="blurOut2" type="matrix" values="0 0 0 0 0 0 0 0 0 0 0 0 0 0 0 0 0 0 .4 0"/><feOffset dx="4.0" dy="4.0" in="blurOut2" result="blurOut3"/><feBlend in="SourceGraphic" in2="blurOut3" mode="normal"/></filter></defs><g><polygon fill="#FFFFFF" filter="url(#f1)" points="182.5,509,215.5,509,222.5,532.6094,2115.5,532.6094,2115.5,649,182.5,649,182.5,509" style="stroke: #000000; stroke-width: 2.0;"/><line style="stroke: #000000; stroke-width: 2.0;" x1="182.5" x2="222.5" y1="532.6094" y2="532.6094"/><text fill="#000000" font-family="sans-serif" font-size="14" font-weight="bold" lengthAdjust="spacingAndGlyphs" textLength="27" x="185.5" y="526.5332">Vue</text><polygon fill="#FFFFFF" filter="url(#f1)" points="166.5,761,216.5,761,223.5,784.6094,1587.5,784.6094,1587.5,1159,166.5,1159,166.5,761" style="stroke: #000000; stroke-width: 2.0;"/><line style="stroke: #000000; stroke-width: 2.0;" x1="166.5" x2="223.5" y1="784.6094" y2="784.6094"/><text fill="#000000" font-family="sans-serif" font-size="14" font-weight="bold" lengthAdjust="spacingAndGlyphs" textLength="44" x="169.5" y="778.5332">Model</text><polygon fill="#FFFFFF" filter="url(#f1)" points="208.5,24,281.5,24,288.5,47.6094,1018.5,47.6094,1018.5,476,208.5,476,208.5,24" style="stroke: #000000; stroke-width: 2.0;"/><line style="stroke: #000000; stroke-width: 2.0;" x1="208.5" x2="288.5" y1="47.6094" y2="47.6094"/><text fill="#000000" font-family="sans-serif" font-size="14" font-weight="bold" lengthAdjust="spacingAndGlyphs" textLength="67" x="211.5" y="41.5332">Controler</text><rect fill="#FEFECE" filter="url(#f1)" height="48" style="stroke: #A80036; stroke-width: 1.5;" width="99" x="428" y="565"/><ellipse cx="443" cy="581" fill="#ADD1B2" rx="11" ry="11" style="stroke: #A80036; stroke-width: 1.0;"/><path d="M445.7656,576.875 Q445.9219,576.6563 446.1094,576.5469 Q446.2969,576.4375 446.5156,576.4375 Q446.8906,576.4375 447.125,576.6953 Q447.3594,576.9531 447.3594,577.5625 L447.3594,579.0156 Q447.3594,579.625 447.125,579.8906 Q446.8906,580.1563 446.5156,580.1563 Q446.1719,580.1563 445.9688,579.9531 Q445.7656,579.7656 445.6563,579.25 Q445.6094,578.8906 445.4219,578.7031 Q445.0938,578.3281 444.4844,578.1094 Q443.875,577.8906 443.25,577.8906 Q442.4844,577.8906 441.8516,578.2188 Q441.2188,578.5469 440.7266,579.2969 Q440.2344,580.0469 440.2344,581.0781 L440.2344,582.1719 Q440.2344,583.4063 441.125,584.2266 Q442.0156,585.0469 443.6094,585.0469 Q444.5469,585.0469 445.2031,584.7969 Q445.5938,584.6406 446.0156,584.2031 Q446.2813,583.9375 446.4297,583.8594 Q446.5781,583.7813 446.7813,583.7813 Q447.1094,583.7813 447.3672,584.0391 Q447.625,584.2969 447.625,584.6406 Q447.625,584.9844 447.2813,585.3906 Q446.7813,585.9688 445.9844,586.2969 Q444.9063,586.75 443.6094,586.75 Q442.0938,586.75 440.8906,586.125 Q439.9063,585.625 439.2188,584.5547 Q438.5313,583.4844 438.5313,582.2031 L438.5313,581.0469 Q438.5313,579.7188 439.1484,578.5703 Q439.7656,577.4219 440.8594,576.8047 Q441.9531,576.1875 443.1875,576.1875 Q443.9219,576.1875 444.5703,576.3516 Q445.2188,576.5156 445.7656,576.875 Z "/><text fill="#000000" font-family="sans-serif" font-size="12" lengthAdjust="spacingAndGlyphs" textLength="67" x="457" y="585.9102">Acceuil_Vue</text><line style="stroke: #A80036; stroke-width: 1.5;" x1="429" x2="526" y1="597" y2="597"/><line style="stroke: #A80036; stroke-width: 1.5;" x1="429" x2="526" y1="605" y2="605"/><rect fill="#FEFECE" filter="url(#f1)" height="48" style="stroke: #A80036; stroke-width: 1.5;" width="129" x="1800" y="565"/><ellipse cx="1815" cy="581" fill="#ADD1B2" rx="11" ry="11" style="stroke: #A80036; stroke-width: 1.0;"/><path d="M1817.7656,576.875 Q1817.9219,576.6563 1818.1094,576.5469 Q1818.2969,576.4375 1818.5156,576.4375 Q1818.8906,576.4375 1819.125,576.6953 Q1819.3594,576.9531 1819.3594,577.5625 L1819.3594,579.0156 Q1819.3594,579.625 1819.125,579.8906 Q1818.8906,580.1563 1818.5156,580.1563 Q1818.1719,580.1563 1817.9688,579.9531 Q1817.7656,579.7656 1817.6563,579.25 Q1817.6094,578.8906 1817.4219,578.7031 Q1817.0938,578.3281 1816.4844,578.1094 Q1815.875,577.8906 1815.25,577.8906 Q1814.4844,577.8906 1813.8516,578.2188 Q1813.2188,578.5469 1812.7266,579.2969 Q1812.2344,580.0469 1812.2344,581.0781 L1812.2344,582.1719 Q1812.2344,583.4063 1813.125,584.2266 Q1814.0156,585.0469 1815.6094,585.0469 Q1816.5469,585.0469 1817.2031,584.7969 Q1817.5938,584.6406 1818.0156,584.2031 Q1818.2813,583.9375 1818.4297,583.8594 Q1818.5781,583.7813 1818.7813,583.7813 Q1819.1094,583.7813 1819.3672,584.0391 Q1819.625,584.2969 1819.625,584.6406 Q1819.625,584.9844 1819.2813,585.3906 Q1818.7813,585.9688 1817.9844,586.2969 Q1816.9063,586.75 1815.6094,586.75 Q1814.0938,586.75 1812.8906,586.125 Q1811.9063,585.625 1811.2188,584.5547 Q1810.5313,583.4844 1810.5313,582.2031 L1810.5313,581.0469 Q1810.5313,579.7188 1811.1484,578.5703 Q1811.7656,577.4219 1812.8594,576.8047 Q1813.9531,576.1875 1815.1875,576.1875 Q1815.9219,576.1875 1816.5703,576.3516 Q1817.2188,576.5156 1817.7656,576.875 Z "/><text fill="#000000" font-family="sans-serif" font-size="12" lengthAdjust="spacingAndGlyphs" textLength="97" x="1829" y="585.9102">Identification_Vue</text><line style="stroke: #A80036; stroke-width: 1.5;" x1="1801" x2="1928" y1="597" y2="597"/><line style="stroke: #A80036; stroke-width: 1.5;" x1="1801" x2="1928" y1="605" y2="605"/><rect fill="#FEFECE" filter="url(#f1)" height="48" style="stroke: #A80036; stroke-width: 1.5;" width="146" x="222.5" y="565"/><ellipse cx="237.5" cy="581" fill="#ADD1B2" rx="11" ry="11" style="stroke: #A80036; stroke-width: 1.0;"/><path d="M240.2656,576.875 Q240.4219,576.6563 240.6094,576.5469 Q240.7969,576.4375 241.0156,576.4375 Q241.3906,576.4375 241.625,576.6953 Q241.8594,576.9531 241.8594,577.5625 L241.8594,579.0156 Q241.8594,579.625 241.625,579.8906 Q241.3906,580.1563 241.0156,580.1563 Q240.6719,580.1563 240.4688,579.9531 Q240.2656,579.7656 240.1563,579.25 Q240.1094,578.8906 239.9219,578.7031 Q239.5938,578.3281 238.9844,578.1094 Q238.375,577.8906 237.75,577.8906 Q236.9844,577.8906 236.3516,578.2188 Q235.7188,578.5469 235.2266,579.2969 Q234.7344,580.0469 234.7344,581.0781 L234.7344,582.1719 Q234.7344,583.4063 235.625,584.2266 Q236.5156,585.0469 238.1094,585.0469 Q239.0469,585.0469 239.7031,584.7969 Q240.0938,584.6406 240.5156,584.2031 Q240.7813,583.9375 240.9297,583.8594 Q241.0781,583.7813 241.2813,583.7813 Q241.6094,583.7813 241.8672,584.0391 Q242.125,584.2969 242.125,584.6406 Q242.125,584.9844 241.7813,585.3906 Q241.2813,585.9688 240.4844,586.2969 Q239.4063,586.75 238.1094,586.75 Q236.5938,586.75 235.3906,586.125 Q234.4063,585.625 233.7188,584.5547 Q233.0313,583.4844 233.0313,582.2031 L233.0313,581.0469 Q233.0313,579.7188 233.6484,578.5703 Q234.2656,577.4219 235.3594,576.8047 Q236.4531,576.1875 237.6875,576.1875 Q238.4219,576.1875 239.0703,576.3516 Q239.7188,576.5156 240.2656,576.875 Z "/><text fill="#000000" font-family="sans-serif" font-size="12" lengthAdjust="spacingAndGlyphs" textLength="114" x="251.5" y="585.9102">Consommation_Vue</text><line style="stroke: #A80036; stroke-width: 1.5;" x1="223.5" x2="367.5" y1="597" y2="597"/><line style="stroke: #A80036; stroke-width: 1.5;" x1="223.5" x2="367.5" y1="605" y2="605"/><rect fill="#FEFECE" filter="url(#f1)" height="48" style="stroke: #A80036; stroke-width: 1.5;" width="140" x="562.5" y="565"/><ellipse cx="577.5" cy="581" fill="#ADD1B2" rx="11" ry="11" style="stroke: #A80036; stroke-width: 1.0;"/><path d="M580.2656,576.875 Q580.4219,576.6563 580.6094,576.5469 Q580.7969,576.4375 581.0156,576.4375 Q581.3906,576.4375 581.625,576.6953 Q581.8594,576.9531 581.8594,577.5625 L581.8594,579.0156 Q581.8594,579.625 581.625,579.8906 Q581.3906,580.1563 581.0156,580.1563 Q580.6719,580.1563 580.4688,579.9531 Q580.2656,579.7656 580.1563,579.25 Q580.1094,578.8906 579.9219,578.7031 Q579.5938,578.3281 578.9844,578.1094 Q578.375,577.8906 577.75,577.8906 Q576.9844,577.8906 576.3516,578.2188 Q575.7188,578.5469 575.2266,579.2969 Q574.7344,580.0469 574.7344,581.0781 L574.7344,582.1719 Q574.7344,583.4063 575.625,584.2266 Q576.5156,585.0469 578.1094,585.0469 Q579.0469,585.0469 579.7031,584.7969 Q580.0938,584.6406 580.5156,584.2031 Q580.7813,583.9375 580.9297,583.8594 Q581.0781,583.7813 581.2813,583.7813 Q581.6094,583.7813 581.8672,584.0391 Q582.125,584.2969 582.125,584.6406 Q582.125,584.9844 581.7813,585.3906 Q581.2813,585.9688 580.4844,586.2969 Q579.4063,586.75 578.1094,586.75 Q576.5938,586.75 575.3906,586.125 Q574.4063,585.625 573.7188,584.5547 Q573.0313,583.4844 573.0313,582.2031 L573.0313,581.0469 Q573.0313,579.7188 573.6484,578.5703 Q574.2656,577.4219 575.3594,576.8047 Q576.4531,576.1875 577.6875,576.1875 Q578.4219,576.1875 579.0703,576.3516 Q579.7188,576.5156 580.2656,576.875 Z "/><text fill="#000000" font-family="sans-serif" font-size="12" lengthAdjust="spacingAndGlyphs" textLength="108" x="591.5" y="585.9102">JoursScenario_Vue</text><line style="stroke: #A80036; stroke-width: 1.5;" x1="563.5" x2="701.5" y1="597" y2="597"/><line style="stroke: #A80036; stroke-width: 1.5;" x1="563.5" x2="701.5" y1="605" y2="605"/><rect fill="#FEFECE" filter="url(#f1)" height="48" style="stroke: #A80036; stroke-width: 1.5;" width="159" x="1606" y="565"/><ellipse cx="1621" cy="581" fill="#ADD1B2" rx="11" ry="11" style="stroke: #A80036; stroke-width: 1.0;"/><path d="M1623.7656,576.875 Q1623.9219,576.6563 1624.1094,576.5469 Q1624.2969,576.4375 1624.5156,576.4375 Q1624.8906,576.4375 1625.125,576.6953 Q1625.3594,576.9531 1625.3594,577.5625 L1625.3594,579.0156 Q1625.3594,579.625 1625.125,579.8906 Q1624.8906,580.1563 1624.5156,580.1563 Q1624.1719,580.1563 1623.9688,579.9531 Q1623.7656,579.7656 1623.6563,579.25 Q1623.6094,578.8906 1623.4219,578.7031 Q1623.0938,578.3281 1622.4844,578.1094 Q1621.875,577.8906 1621.25,577.8906 Q1620.4844,577.8906 1619.8516,578.2188 Q1619.2188,578.5469 1618.7266,579.2969 Q1618.2344,580.0469 1618.2344,581.0781 L1618.2344,582.1719 Q1618.2344,583.4063 1619.125,584.2266 Q1620.0156,585.0469 1621.6094,585.0469 Q1622.5469,585.0469 1623.2031,584.7969 Q1623.5938,584.6406 1624.0156,584.2031 Q1624.2813,583.9375 1624.4297,583.8594 Q1624.5781,583.7813 1624.7813,583.7813 Q1625.1094,583.7813 1625.3672,584.0391 Q1625.625,584.2969 1625.625,584.6406 Q1625.625,584.9844 1625.2813,585.3906 Q1624.7813,585.9688 1623.9844,586.2969 Q1622.9063,586.75 1621.6094,586.75 Q1620.0938,586.75 1618.8906,586.125 Q1617.9063,585.625 1617.2188,584.5547 Q1616.5313,583.4844 1616.5313,582.2031 L1616.5313,581.0469 Q1616.5313,579.7188 1617.1484,578.5703 Q1617.7656,577.4219 1618.8594,576.8047 Q1619.9531,576.1875 1621.1875,576.1875 Q1621.9219,576.1875 1622.5703,576.3516 Q1623.2188,576.5156 1623.7656,576.875 Z "/><text fill="#000000" font-family="sans-serif" font-size="12" lengthAdjust="spacingAndGlyphs" textLength="127" x="1635" y="585.9102">SemaineScenario_Vue</text><line style="stroke: #A80036; stroke-width: 1.5;" x1="1607" x2="1764" y1="597" y2="597"/><line style="stroke: #A80036; stroke-width: 1.5;" x1="1607" x2="1764" y1="605" y2="605"/><rect fill="#FEFECE" filter="url(#f1)" height="48" style="stroke: #A80036; stroke-width: 1.5;" width="135" x="1964" y="565"/><ellipse cx="1979" cy="581" fill="#ADD1B2" rx="11" ry="11" style="stroke: #A80036; stroke-width: 1.0;"/><path d="M1981.7656,576.875 Q1981.9219,576.6563 1982.1094,576.5469 Q1982.2969,576.4375 1982.5156,576.4375 Q1982.8906,576.4375 1983.125,576.6953 Q1983.3594,576.9531 1983.3594,577.5625 L1983.3594,579.0156 Q1983.3594,579.625 1983.125,579.8906 Q1982.8906,580.1563 1982.5156,580.1563 Q1982.1719,580.1563 1981.9688,579.9531 Q1981.7656,579.7656 1981.6563,579.25 Q1981.6094,578.8906 1981.4219,578.7031 Q1981.0938,578.3281 1980.4844,578.1094 Q1979.875,577.8906 1979.25,577.8906 Q1978.4844,577.8906 1977.8516,578.2188 Q1977.2188,578.5469 1976.7266,579.2969 Q1976.2344,580.0469 1976.2344,581.0781 L1976.2344,582.1719 Q1976.2344,583.4063 1977.125,584.2266 Q1978.0156,585.0469 1979.6094,585.0469 Q1980.5469,585.0469 1981.2031,584.7969 Q1981.5938,584.6406 1982.0156,584.2031 Q1982.2813,583.9375 1982.4297,583.8594 Q1982.5781,583.7813 1982.7813,583.7813 Q1983.1094,583.7813 1983.3672,584.0391 Q1983.625,584.2969 1983.625,584.6406 Q1983.625,584.9844 1983.2813,585.3906 Q1982.7813,585.9688 1981.9844,586.2969 Q1980.9063,586.75 1979.6094,586.75 Q1978.0938,586.75 1976.8906,586.125 Q1975.9063,585.625 1975.2188,584.5547 Q1974.5313,583.4844 1974.5313,582.2031 L1974.5313,581.0469 Q1974.5313,579.7188 1975.1484,578.5703 Q1975.7656,577.4219 1976.8594,576.8047 Q1977.9531,576.1875 1979.1875,576.1875 Q1979.9219,576.1875 1980.5703,576.3516 Q1981.2188,576.5156 1981.7656,576.875 Z "/><text fill="#000000" font-family="sans-serif" font-size="12" lengthAdjust="spacingAndGlyphs" textLength="103" x="1993" y="585.9102">MoisScenario_Vue</text><line style="stroke: #A80036; stroke-width: 1.5;" x1="1965" x2="2098" y1="597" y2="597"/><line style="stroke: #A80036; stroke-width: 1.5;" x1="1965" x2="2098" y1="605" y2="605"/><rect fill="#FEFECE" filter="url(#f1)" height="48" style="stroke: #A80036; stroke-width: 1.5;" width="120" x="1426.5" y="565"/><ellipse cx="1441.5" cy="581" fill="#ADD1B2" rx="11" ry="11" style="stroke: #A80036; stroke-width: 1.0;"/><path d="M1444.2656,576.875 Q1444.4219,576.6563 1444.6094,576.5469 Q1444.7969,576.4375 1445.0156,576.4375 Q1445.3906,576.4375 1445.625,576.6953 Q1445.8594,576.9531 1445.8594,577.5625 L1445.8594,579.0156 Q1445.8594,579.625 1445.625,579.8906 Q1445.3906,580.1563 1445.0156,580.1563 Q1444.6719,580.1563 1444.4688,579.9531 Q1444.2656,579.7656 1444.1563,579.25 Q1444.1094,578.8906 1443.9219,578.7031 Q1443.5938,578.3281 1442.9844,578.1094 Q1442.375,577.8906 1441.75,577.8906 Q1440.9844,577.8906 1440.3516,578.2188 Q1439.7188,578.5469 1439.2266,579.2969 Q1438.7344,580.0469 1438.7344,581.0781 L1438.7344,582.1719 Q1438.7344,583.4063 1439.625,584.2266 Q1440.5156,585.0469 1442.1094,585.0469 Q1443.0469,585.0469 1443.7031,584.7969 Q1444.0938,584.6406 1444.5156,584.2031 Q1444.7813,583.9375 1444.9297,583.8594 Q1445.0781,583.7813 1445.2813,583.7813 Q1445.6094,583.7813 1445.8672,584.0391 Q1446.125,584.2969 1446.125,584.6406 Q1446.125,584.9844 1445.7813,585.3906 Q1445.2813,585.9688 1444.4844,586.2969 Q1443.4063,586.75 1442.1094,586.75 Q1440.5938,586.75 1439.3906,586.125 Q1438.4063,585.625 1437.7188,584.5547 Q1437.0313,583.4844 1437.0313,582.2031 L1437.0313,581.0469 Q1437.0313,579.7188 1437.6484,578.5703 Q1438.2656,577.4219 1439.3594,576.8047 Q1440.4531,576.1875 1441.6875,576.1875 Q1442.4219,576.1875 1443.0703,576.3516 Q1443.7188,576.5156 1444.2656,576.875 Z "/><text fill="#000000" font-family="sans-serif" font-size="12" lengthAdjust="spacingAndGlyphs" textLength="88" x="1455.5" y="585.9102">ChoixObjet_Vue</text><line style="stroke: #A80036; stroke-width: 1.5;" x1="1427.5" x2="1545.5" y1="597" y2="597"/><line style="stroke: #A80036; stroke-width: 1.5;" x1="1427.5" x2="1545.5" y1="605" y2="605"/><rect fill="#FEFECE" filter="url(#f1)" height="48" style="stroke: #A80036; stroke-width: 1.5;" width="116" x="761.5" y="565"/><ellipse cx="776.5" cy="581" fill="#ADD1B2" rx="11" ry="11" style="stroke: #A80036; stroke-width: 1.0;"/><path d="M779.2656,576.875 Q779.4219,576.6563 779.6094,576.5469 Q779.7969,576.4375 780.0156,576.4375 Q780.3906,576.4375 780.625,576.6953 Q780.8594,576.9531 780.8594,577.5625 L780.8594,579.0156 Q780.8594,579.625 780.625,579.8906 Q780.3906,580.1563 780.0156,580.1563 Q779.6719,580.1563 779.4688,579.9531 Q779.2656,579.7656 779.1563,579.25 Q779.1094,578.8906 778.9219,578.7031 Q778.5938,578.3281 777.9844,578.1094 Q777.375,577.8906 776.75,577.8906 Q775.9844,577.8906 775.3516,578.2188 Q774.7188,578.5469 774.2266,579.2969 Q773.7344,580.0469 773.7344,581.0781 L773.7344,582.1719 Q773.7344,583.4063 774.625,584.2266 Q775.5156,585.0469 777.1094,585.0469 Q778.0469,585.0469 778.7031,584.7969 Q779.0938,584.6406 779.5156,584.2031 Q779.7813,583.9375 779.9297,583.8594 Q780.0781,583.7813 780.2813,583.7813 Q780.6094,583.7813 780.8672,584.0391 Q781.125,584.2969 781.125,584.6406 Q781.125,584.9844 780.7813,585.3906 Q780.2813,585.9688 779.4844,586.2969 Q778.4063,586.75 777.1094,586.75 Q775.5938,586.75 774.3906,586.125 Q773.4063,585.625 772.7188,584.5547 Q772.0313,583.4844 772.0313,582.2031 L772.0313,581.0469 Q772.0313,579.7188 772.6484,578.5703 Q773.2656,577.4219 774.3594,576.8047 Q775.4531,576.1875 776.6875,576.1875 Q777.4219,576.1875 778.0703,576.3516 Q778.7188,576.5156 779.2656,576.875 Z "/><text fill="#000000" font-family="sans-serif" font-size="12" lengthAdjust="spacingAndGlyphs" textLength="84" x="790.5" y="585.9102">AjoutObjet_Vue</text><line style="stroke: #A80036; stroke-width: 1.5;" x1="762.5" x2="876.5" y1="597" y2="597"/><line style="stroke: #A80036; stroke-width: 1.5;" x1="762.5" x2="876.5" y1="605" y2="605"/><rect fill="#FEFECE" filter="url(#f1)" height="48" style="stroke: #A80036; stroke-width: 1.5;" width="117" x="961.5" y="565"/><ellipse cx="976.5" cy="581" fill="#ADD1B2" rx="11" ry="11" style="stroke: #A80036; stroke-width: 1.0;"/><path d="M979.2656,576.875 Q979.4219,576.6563 979.6094,576.5469 Q979.7969,576.4375 980.0156,576.4375 Q980.3906,576.4375 980.625,576.6953 Q980.8594,576.9531 980.8594,577.5625 L980.8594,579.0156 Q980.8594,579.625 980.625,579.8906 Q980.3906,580.1563 980.0156,580.1563 Q979.6719,580.1563 979.4688,579.9531 Q979.2656,579.7656 979.1563,579.25 Q979.1094,578.8906 978.9219,578.7031 Q978.5938,578.3281 977.9844,578.1094 Q977.375,577.8906 976.75,577.8906 Q975.9844,577.8906 975.3516,578.2188 Q974.7188,578.5469 974.2266,579.2969 Q973.7344,580.0469 973.7344,581.0781 L973.7344,582.1719 Q973.7344,583.4063 974.625,584.2266 Q975.5156,585.0469 977.1094,585.0469 Q978.0469,585.0469 978.7031,584.7969 Q979.0938,584.6406 979.5156,584.2031 Q979.7813,583.9375 979.9297,583.8594 Q980.0781,583.7813 980.2813,583.7813 Q980.6094,583.7813 980.8672,584.0391 Q981.125,584.2969 981.125,584.6406 Q981.125,584.9844 980.7813,585.3906 Q980.2813,585.9688 979.4844,586.2969 Q978.4063,586.75 977.1094,586.75 Q975.5938,586.75 974.3906,586.125 Q973.4063,585.625 972.7188,584.5547 Q972.0313,583.4844 972.0313,582.2031 L972.0313,581.0469 Q972.0313,579.7188 972.6484,578.5703 Q973.2656,577.4219 974.3594,576.8047 Q975.4531,576.1875 976.6875,576.1875 Q977.4219,576.1875 978.0703,576.3516 Q978.7188,576.5156 979.2656,576.875 Z "/><text fill="#000000" font-family="sans-serif" font-size="12" lengthAdjust="spacingAndGlyphs" textLength="85" x="990.5" y="585.9102">ObjetProfil_Vue</text><line style="stroke: #A80036; stroke-width: 1.5;" x1="962.5" x2="1077.5" y1="597" y2="597"/><line style="stroke: #A80036; stroke-width: 1.5;" x1="962.5" x2="1077.5" y1="605" y2="605"/><rect fill="#FEFECE" filter="url(#f1)" height="48" style="stroke: #A80036; stroke-width: 1.5;" width="182" x="1161.5" y="565"/><ellipse cx="1176.5" cy="581" fill="#ADD1B2" rx="11" ry="11" style="stroke: #A80036; stroke-width: 1.0;"/><path d="M1179.2656,576.875 Q1179.4219,576.6563 1179.6094,576.5469 Q1179.7969,576.4375 1180.0156,576.4375 Q1180.3906,576.4375 1180.625,576.6953 Q1180.8594,576.9531 1180.8594,577.5625 L1180.8594,579.0156 Q1180.8594,579.625 1180.625,579.8906 Q1180.3906,580.1563 1180.0156,580.1563 Q1179.6719,580.1563 1179.4688,579.9531 Q1179.2656,579.7656 1179.1563,579.25 Q1179.1094,578.8906 1178.9219,578.7031 Q1178.5938,578.3281 1177.9844,578.1094 Q1177.375,577.8906 1176.75,577.8906 Q1175.9844,577.8906 1175.3516,578.2188 Q1174.7188,578.5469 1174.2266,579.2969 Q1173.7344,580.0469 1173.7344,581.0781 L1173.7344,582.1719 Q1173.7344,583.4063 1174.625,584.2266 Q1175.5156,585.0469 1177.1094,585.0469 Q1178.0469,585.0469 1178.7031,584.7969 Q1179.0938,584.6406 1179.5156,584.2031 Q1179.7813,583.9375 1179.9297,583.8594 Q1180.0781,583.7813 1180.2813,583.7813 Q1180.6094,583.7813 1180.8672,584.0391 Q1181.125,584.2969 1181.125,584.6406 Q1181.125,584.9844 1180.7813,585.3906 Q1180.2813,585.9688 1179.4844,586.2969 Q1178.4063,586.75 1177.1094,586.75 Q1175.5938,586.75 1174.3906,586.125 Q1173.4063,585.625 1172.7188,584.5547 Q1172.0313,583.4844 1172.0313,582.2031 L1172.0313,581.0469 Q1172.0313,579.7188 1172.6484,578.5703 Q1173.2656,577.4219 1174.3594,576.8047 Q1175.4531,576.1875 1176.6875,576.1875 Q1177.4219,576.1875 1178.0703,576.3516 Q1178.7188,576.5156 1179.2656,576.875 Z "/><text fill="#000000" font-family="sans-serif" font-size="12" lengthAdjust="spacingAndGlyphs" textLength="150" x="1190.5" y="585.9102">ModificationObjetProfil_Vue</text><line style="stroke: #A80036; stroke-width: 1.5;" x1="1162.5" x2="1342.5" y1="597" y2="597"/><line style="stroke: #A80036; stroke-width: 1.5;" x1="1162.5" x2="1342.5" y1="605" y2="605"/><rect fill="#FEFECE" filter="url(#f1)" height="48" style="stroke: #A80036; stroke-width: 1.5;" width="158" x="394.5" y="946"/><ellipse cx="409.5" cy="962" fill="#ADD1B2" rx="11" ry="11" style="stroke: #A80036; stroke-width: 1.0;"/><path d="M412.2656,957.875 Q412.4219,957.6563 412.6094,957.5469 Q412.7969,957.4375 413.0156,957.4375 Q413.3906,957.4375 413.625,957.6953 Q413.8594,957.9531 413.8594,958.5625 L413.8594,960.0156 Q413.8594,960.625 413.625,960.8906 Q413.3906,961.1563 413.0156,961.1563 Q412.6719,961.1563 412.4688,960.9531 Q412.2656,960.7656 412.1563,960.25 Q412.1094,959.8906 411.9219,959.7031 Q411.5938,959.3281 410.9844,959.1094 Q410.375,958.8906 409.75,958.8906 Q408.9844,958.8906 408.3516,959.2188 Q407.7188,959.5469 407.2266,960.2969 Q406.7344,961.0469 406.7344,962.0781 L406.7344,963.1719 Q406.7344,964.4063 407.625,965.2266 Q408.5156,966.0469 410.1094,966.0469 Q411.0469,966.0469 411.7031,965.7969 Q412.0938,965.6406 412.5156,965.2031 Q412.7813,964.9375 412.9297,964.8594 Q413.0781,964.7813 413.2813,964.7813 Q413.6094,964.7813 413.8672,965.0391 Q414.125,965.2969 414.125,965.6406 Q414.125,965.9844 413.7813,966.3906 Q413.2813,966.9688 412.4844,967.2969 Q411.4063,967.75 410.1094,967.75 Q408.5938,967.75 407.3906,967.125 Q406.4063,966.625 405.7188,965.5547 Q405.0313,964.4844 405.0313,963.2031 L405.0313,962.0469 Q405.0313,960.7188 405.6484,959.5703 Q406.2656,958.4219 407.3594,957.8047 Q408.4531,957.1875 409.6875,957.1875 Q410.4219,957.1875 411.0703,957.3516 Q411.7188,957.5156 412.2656,957.875 Z "/><text fill="#000000" font-family="sans-serif" font-size="12" lengthAdjust="spacingAndGlyphs" textLength="126" x="423.5" y="966.9102">Consommation_Model</text><line style="stroke: #A80036; stroke-width: 1.5;" x1="395.5" x2="551.5" y1="978" y2="978"/><line style="stroke: #A80036; stroke-width: 1.5;" x1="395.5" x2="551.5" y1="986" y2="986"/><rect fill="#FEFECE" filter="url(#f1)" height="48" style="stroke: #A80036; stroke-width: 1.5;" width="201" x="207.5" y="817"/><ellipse cx="222.5" cy="833" fill="#B4A7E5" rx="11" ry="11" style="stroke: #A80036; stroke-width: 1.0;"/><path d="M223.4531,829.6406 L223.4531,836.2969 L225.1719,836.2969 Q225.7813,836.2969 226.0469,836.5313 Q226.3125,836.7656 226.3125,837.1563 Q226.3125,837.5313 226.0469,837.7656 Q225.7813,838 225.1719,838 L220.0313,838 Q219.4219,838 219.1563,837.7656 Q218.8906,837.5313 218.8906,837.1406 Q218.8906,836.7656 219.1563,836.5313 Q219.4219,836.2969 220.0313,836.2969 L221.75,836.2969 L221.75,829.6406 L220.0313,829.6406 Q219.4219,829.6406 219.1563,829.4063 Q218.8906,829.1719 218.8906,828.7813 Q218.8906,828.4063 219.1563,828.1719 Q219.4219,827.9375 220.0313,827.9375 L225.1719,827.9375 Q225.7813,827.9375 226.0469,828.1719 Q226.3125,828.4063 226.3125,828.7813 Q226.3125,829.1719 226.0469,829.4063 Q225.7813,829.6406 225.1719,829.6406 L223.4531,829.6406 Z "/><text fill="#000000" font-family="sans-serif" font-size="12" font-style="italic" lengthAdjust="spacingAndGlyphs" textLength="169" x="236.5" y="837.9102">ConsommationListener_Model</text><line style="stroke: #A80036; stroke-width: 1.5;" x1="208.5" x2="407.5" y1="849" y2="849"/><line style="stroke: #A80036; stroke-width: 1.5;" x1="208.5" x2="407.5" y1="857" y2="857"/><rect fill="#FEFECE" filter="url(#f1)" height="48" style="stroke: #A80036; stroke-width: 1.5;" width="215" x="467" y="817"/><ellipse cx="482" cy="833" fill="#ADD1B2" rx="11" ry="11" style="stroke: #A80036; stroke-width: 1.0;"/><path d="M484.7656,828.875 Q484.9219,828.6563 485.1094,828.5469 Q485.2969,828.4375 485.5156,828.4375 Q485.8906,828.4375 486.125,828.6953 Q486.3594,828.9531 486.3594,829.5625 L486.3594,831.0156 Q486.3594,831.625 486.125,831.8906 Q485.8906,832.1563 485.5156,832.1563 Q485.1719,832.1563 484.9688,831.9531 Q484.7656,831.7656 484.6563,831.25 Q484.6094,830.8906 484.4219,830.7031 Q484.0938,830.3281 483.4844,830.1094 Q482.875,829.8906 482.25,829.8906 Q481.4844,829.8906 480.8516,830.2188 Q480.2188,830.5469 479.7266,831.2969 Q479.2344,832.0469 479.2344,833.0781 L479.2344,834.1719 Q479.2344,835.4063 480.125,836.2266 Q481.0156,837.0469 482.6094,837.0469 Q483.5469,837.0469 484.2031,836.7969 Q484.5938,836.6406 485.0156,836.2031 Q485.2813,835.9375 485.4297,835.8594 Q485.5781,835.7813 485.7813,835.7813 Q486.1094,835.7813 486.3672,836.0391 Q486.625,836.2969 486.625,836.6406 Q486.625,836.9844 486.2813,837.3906 Q485.7813,837.9688 484.9844,838.2969 Q483.9063,838.75 482.6094,838.75 Q481.0938,838.75 479.8906,838.125 Q478.9063,837.625 478.2188,836.5547 Q477.5313,835.4844 477.5313,834.2031 L477.5313,833.0469 Q477.5313,831.7188 478.1484,830.5703 Q478.7656,829.4219 479.8594,828.8047 Q480.9531,828.1875 482.1875,828.1875 Q482.9219,828.1875 483.5703,828.3516 Q484.2188,828.5156 484.7656,828.875 Z "/><text fill="#000000" font-family="sans-serif" font-size="12" lengthAdjust="spacingAndGlyphs" textLength="183" x="496" y="837.9102">ConsommationHistorique_Model</text><line style="stroke: #A80036; stroke-width: 1.5;" x1="468" x2="681" y1="849" y2="849"/><line style="stroke: #A80036; stroke-width: 1.5;" x1="468" x2="681" y1="857" y2="857"/><rect fill="#FEFECE" filter="url(#f1)" height="48" style="stroke: #A80036; stroke-width: 1.5;" width="165" x="741.5" y="817"/><ellipse cx="756.5" cy="833" fill="#B4A7E5" rx="11" ry="11" style="stroke: #A80036; stroke-width: 1.0;"/><path d="M757.4531,829.6406 L757.4531,836.2969 L759.1719,836.2969 Q759.7813,836.2969 760.0469,836.5313 Q760.3125,836.7656 760.3125,837.1563 Q760.3125,837.5313 760.0469,837.7656 Q759.7813,838 759.1719,838 L754.0313,838 Q753.4219,838 753.1563,837.7656 Q752.8906,837.5313 752.8906,837.1406 Q752.8906,836.7656 753.1563,836.5313 Q753.4219,836.2969 754.0313,836.2969 L755.75,836.2969 L755.75,829.6406 L754.0313,829.6406 Q753.4219,829.6406 753.1563,829.4063 Q752.8906,829.1719 752.8906,828.7813 Q752.8906,828.4063 753.1563,828.1719 Q753.4219,827.9375 754.0313,827.9375 L759.1719,827.9375 Q759.7813,827.9375 760.0469,828.1719 Q760.3125,828.4063 760.3125,828.7813 Q760.3125,829.1719 760.0469,829.4063 Q759.7813,829.6406 759.1719,829.6406 L757.4531,829.6406 Z "/><text fill="#000000" font-family="sans-serif" font-size="12" font-style="italic" lengthAdjust="spacingAndGlyphs" textLength="133" x="770.5" y="837.9102">ScenarioListener_Model</text><line style="stroke: #A80036; stroke-width: 1.5;" x1="742.5" x2="905.5" y1="849" y2="849"/><line style="stroke: #A80036; stroke-width: 1.5;" x1="742.5" x2="905.5" y1="857" y2="857"/><rect fill="#FEFECE" filter="url(#f1)" height="48" style="stroke: #A80036; stroke-width: 1.5;" width="121" x="764" y="946"/><ellipse cx="779" cy="962" fill="#ADD1B2" rx="11" ry="11" style="stroke: #A80036; stroke-width: 1.0;"/><path d="M781.7656,957.875 Q781.9219,957.6563 782.1094,957.5469 Q782.2969,957.4375 782.5156,957.4375 Q782.8906,957.4375 783.125,957.6953 Q783.3594,957.9531 783.3594,958.5625 L783.3594,960.0156 Q783.3594,960.625 783.125,960.8906 Q782.8906,961.1563 782.5156,961.1563 Q782.1719,961.1563 781.9688,960.9531 Q781.7656,960.7656 781.6563,960.25 Q781.6094,959.8906 781.4219,959.7031 Q781.0938,959.3281 780.4844,959.1094 Q779.875,958.8906 779.25,958.8906 Q778.4844,958.8906 777.8516,959.2188 Q777.2188,959.5469 776.7266,960.2969 Q776.2344,961.0469 776.2344,962.0781 L776.2344,963.1719 Q776.2344,964.4063 777.125,965.2266 Q778.0156,966.0469 779.6094,966.0469 Q780.5469,966.0469 781.2031,965.7969 Q781.5938,965.6406 782.0156,965.2031 Q782.2813,964.9375 782.4297,964.8594 Q782.5781,964.7813 782.7813,964.7813 Q783.1094,964.7813 783.3672,965.0391 Q783.625,965.2969 783.625,965.6406 Q783.625,965.9844 783.2813,966.3906 Q782.7813,966.9688 781.9844,967.2969 Q780.9063,967.75 779.6094,967.75 Q778.0938,967.75 776.8906,967.125 Q775.9063,966.625 775.2188,965.5547 Q774.5313,964.4844 774.5313,963.2031 L774.5313,962.0469 Q774.5313,960.7188 775.1484,959.5703 Q775.7656,958.4219 776.8594,957.8047 Q777.9531,957.1875 779.1875,957.1875 Q779.9219,957.1875 780.5703,957.3516 Q781.2188,957.5156 781.7656,957.875 Z "/><text fill="#000000" font-family="sans-serif" font-size="12" lengthAdjust="spacingAndGlyphs" textLength="89" x="793" y="966.9102">Scenario_Model</text><line style="stroke: #A80036; stroke-width: 1.5;" x1="765" x2="884" y1="978" y2="978"/><line style="stroke: #A80036; stroke-width: 1.5;" x1="765" x2="884" y1="986" y2="986"/><rect fill="#FEFECE" filter="url(#f1)" height="48" style="stroke: #A80036; stroke-width: 1.5;" width="152" x="965.5" y="817"/><ellipse cx="980.5" cy="833" fill="#ADD1B2" rx="11" ry="11" style="stroke: #A80036; stroke-width: 1.0;"/><path d="M983.2656,828.875 Q983.4219,828.6563 983.6094,828.5469 Q983.7969,828.4375 984.0156,828.4375 Q984.3906,828.4375 984.625,828.6953 Q984.8594,828.9531 984.8594,829.5625 L984.8594,831.0156 Q984.8594,831.625 984.625,831.8906 Q984.3906,832.1563 984.0156,832.1563 Q983.6719,832.1563 983.4688,831.9531 Q983.2656,831.7656 983.1563,831.25 Q983.1094,830.8906 982.9219,830.7031 Q982.5938,830.3281 981.9844,830.1094 Q981.375,829.8906 980.75,829.8906 Q979.9844,829.8906 979.3516,830.2188 Q978.7188,830.5469 978.2266,831.2969 Q977.7344,832.0469 977.7344,833.0781 L977.7344,834.1719 Q977.7344,835.4063 978.625,836.2266 Q979.5156,837.0469 981.1094,837.0469 Q982.0469,837.0469 982.7031,836.7969 Q983.0938,836.6406 983.5156,836.2031 Q983.7813,835.9375 983.9297,835.8594 Q984.0781,835.7813 984.2813,835.7813 Q984.6094,835.7813 984.8672,836.0391 Q985.125,836.2969 985.125,836.6406 Q985.125,836.9844 984.7813,837.3906 Q984.2813,837.9688 983.4844,838.2969 Q982.4063,838.75 981.1094,838.75 Q979.5938,838.75 978.3906,838.125 Q977.4063,837.625 976.7188,836.5547 Q976.0313,835.4844 976.0313,834.2031 L976.0313,833.0469 Q976.0313,831.7188 976.6484,830.5703 Q977.2656,829.4219 978.3594,828.8047 Q979.4531,828.1875 980.6875,828.1875 Q981.4219,828.1875 982.0703,828.3516 Q982.7188,828.5156 983.2656,828.875 Z "/><text fill="#000000" font-family="sans-serif" font-size="12" lengthAdjust="spacingAndGlyphs" textLength="120" x="994.5" y="837.9102">ScenarioTable_Model</text><line style="stroke: #A80036; stroke-width: 1.5;" x1="966.5" x2="1116.5" y1="849" y2="849"/><line style="stroke: #A80036; stroke-width: 1.5;" x1="966.5" x2="1116.5" y1="857" y2="857"/><rect fill="#FEFECE" filter="url(#f1)" height="48" style="stroke: #A80036; stroke-width: 1.5;" width="148" x="746.5" y="1075"/><ellipse cx="761.5" cy="1091" fill="#ADD1B2" rx="11" ry="11" style="stroke: #A80036; stroke-width: 1.0;"/><path d="M764.2656,1086.875 Q764.4219,1086.6563 764.6094,1086.5469 Q764.7969,1086.4375 765.0156,1086.4375 Q765.3906,1086.4375 765.625,1086.6953 Q765.8594,1086.9531 765.8594,1087.5625 L765.8594,1089.0156 Q765.8594,1089.625 765.625,1089.8906 Q765.3906,1090.1563 765.0156,1090.1563 Q764.6719,1090.1563 764.4688,1089.9531 Q764.2656,1089.7656 764.1563,1089.25 Q764.1094,1088.8906 763.9219,1088.7031 Q763.5938,1088.3281 762.9844,1088.1094 Q762.375,1087.8906 761.75,1087.8906 Q760.9844,1087.8906 760.3516,1088.2188 Q759.7188,1088.5469 759.2266,1089.2969 Q758.7344,1090.0469 758.7344,1091.0781 L758.7344,1092.1719 Q758.7344,1093.4063 759.625,1094.2266 Q760.5156,1095.0469 762.1094,1095.0469 Q763.0469,1095.0469 763.7031,1094.7969 Q764.0938,1094.6406 764.5156,1094.2031 Q764.7813,1093.9375 764.9297,1093.8594 Q765.0781,1093.7813 765.2813,1093.7813 Q765.6094,1093.7813 765.8672,1094.0391 Q766.125,1094.2969 766.125,1094.6406 Q766.125,1094.9844 765.7813,1095.3906 Q765.2813,1095.9688 764.4844,1096.2969 Q763.4063,1096.75 762.1094,1096.75 Q760.5938,1096.75 759.3906,1096.125 Q758.4063,1095.625 757.7188,1094.5547 Q757.0313,1093.4844 757.0313,1092.2031 L757.0313,1091.0469 Q757.0313,1089.7188 757.6484,1088.5703 Q758.2656,1087.4219 759.3594,1086.8047 Q760.4531,1086.1875 761.6875,1086.1875 Q762.4219,1086.1875 763.0703,1086.3516 Q763.7188,1086.5156 764.2656,1086.875 Z "/><text fill="#000000" font-family="sans-serif" font-size="12" lengthAdjust="spacingAndGlyphs" textLength="116" x="775.5" y="1095.9102">SemaineType_Model</text><line style="stroke: #A80036; stroke-width: 1.5;" x1="747.5" x2="893.5" y1="1107" y2="1107"/><line style="stroke: #A80036; stroke-width: 1.5;" x1="747.5" x2="893.5" y1="1115" y2="1115"/><rect fill="#FEFECE" filter="url(#f1)" height="48" style="stroke: #A80036; stroke-width: 1.5;" width="124" x="539.5" y="1075"/><ellipse cx="554.5" cy="1091" fill="#ADD1B2" rx="11" ry="11" style="stroke: #A80036; stroke-width: 1.0;"/><path d="M557.2656,1086.875 Q557.4219,1086.6563 557.6094,1086.5469 Q557.7969,1086.4375 558.0156,1086.4375 Q558.3906,1086.4375 558.625,1086.6953 Q558.8594,1086.9531 558.8594,1087.5625 L558.8594,1089.0156 Q558.8594,1089.625 558.625,1089.8906 Q558.3906,1090.1563 558.0156,1090.1563 Q557.6719,1090.1563 557.4688,1089.9531 Q557.2656,1089.7656 557.1563,1089.25 Q557.1094,1088.8906 556.9219,1088.7031 Q556.5938,1088.3281 555.9844,1088.1094 Q555.375,1087.8906 554.75,1087.8906 Q553.9844,1087.8906 553.3516,1088.2188 Q552.7188,1088.5469 552.2266,1089.2969 Q551.7344,1090.0469 551.7344,1091.0781 L551.7344,1092.1719 Q551.7344,1093.4063 552.625,1094.2266 Q553.5156,1095.0469 555.1094,1095.0469 Q556.0469,1095.0469 556.7031,1094.7969 Q557.0938,1094.6406 557.5156,1094.2031 Q557.7813,1093.9375 557.9297,1093.8594 Q558.0781,1093.7813 558.2813,1093.7813 Q558.6094,1093.7813 558.8672,1094.0391 Q559.125,1094.2969 559.125,1094.6406 Q559.125,1094.9844 558.7813,1095.3906 Q558.2813,1095.9688 557.4844,1096.2969 Q556.4063,1096.75 555.1094,1096.75 Q553.5938,1096.75 552.3906,1096.125 Q551.4063,1095.625 550.7188,1094.5547 Q550.0313,1093.4844 550.0313,1092.2031 L550.0313,1091.0469 Q550.0313,1089.7188 550.6484,1088.5703 Q551.2656,1087.4219 552.3594,1086.8047 Q553.4531,1086.1875 554.6875,1086.1875 Q555.4219,1086.1875 556.0703,1086.3516 Q556.7188,1086.5156 557.2656,1086.875 Z "/><text fill="#000000" font-family="sans-serif" font-size="12" lengthAdjust="spacingAndGlyphs" textLength="92" x="568.5" y="1095.9102">MoisType_Model</text><line style="stroke: #A80036; stroke-width: 1.5;" x1="540.5" x2="662.5" y1="1107" y2="1107"/><line style="stroke: #A80036; stroke-width: 1.5;" x1="540.5" x2="662.5" y1="1115" y2="1115"/><rect fill="#FEFECE" filter="url(#f1)" height="48" style="stroke: #A80036; stroke-width: 1.5;" width="129" x="978.5" y="1075"/><ellipse cx="993.5" cy="1091" fill="#ADD1B2" rx="11" ry="11" style="stroke: #A80036; stroke-width: 1.0;"/><path d="M996.2656,1086.875 Q996.4219,1086.6563 996.6094,1086.5469 Q996.7969,1086.4375 997.0156,1086.4375 Q997.3906,1086.4375 997.625,1086.6953 Q997.8594,1086.9531 997.8594,1087.5625 L997.8594,1089.0156 Q997.8594,1089.625 997.625,1089.8906 Q997.3906,1090.1563 997.0156,1090.1563 Q996.6719,1090.1563 996.4688,1089.9531 Q996.2656,1089.7656 996.1563,1089.25 Q996.1094,1088.8906 995.9219,1088.7031 Q995.5938,1088.3281 994.9844,1088.1094 Q994.375,1087.8906 993.75,1087.8906 Q992.9844,1087.8906 992.3516,1088.2188 Q991.7188,1088.5469 991.2266,1089.2969 Q990.7344,1090.0469 990.7344,1091.0781 L990.7344,1092.1719 Q990.7344,1093.4063 991.625,1094.2266 Q992.5156,1095.0469 994.1094,1095.0469 Q995.0469,1095.0469 995.7031,1094.7969 Q996.0938,1094.6406 996.5156,1094.2031 Q996.7813,1093.9375 996.9297,1093.8594 Q997.0781,1093.7813 997.2813,1093.7813 Q997.6094,1093.7813 997.8672,1094.0391 Q998.125,1094.2969 998.125,1094.6406 Q998.125,1094.9844 997.7813,1095.3906 Q997.2813,1095.9688 996.4844,1096.2969 Q995.4063,1096.75 994.1094,1096.75 Q992.5938,1096.75 991.3906,1096.125 Q990.4063,1095.625 989.7188,1094.5547 Q989.0313,1093.4844 989.0313,1092.2031 L989.0313,1091.0469 Q989.0313,1089.7188 989.6484,1088.5703 Q990.2656,1087.4219 991.3594,1086.8047 Q992.4531,1086.1875 993.6875,1086.1875 Q994.4219,1086.1875 995.0703,1086.3516 Q995.7188,1086.5156 996.2656,1086.875 Z "/><text fill="#000000" font-family="sans-serif" font-size="12" lengthAdjust="spacingAndGlyphs" textLength="97" x="1007.5" y="1095.9102">JoursType_Model</text><line style="stroke: #A80036; stroke-width: 1.5;" x1="979.5" x2="1106.5" y1="1107" y2="1107"/><line style="stroke: #A80036; stroke-width: 1.5;" x1="979.5" x2="1106.5" y1="1115" y2="1115"/><rect fill="#FEFECE" filter="url(#f1)" height="48" style="stroke: #A80036; stroke-width: 1.5;" width="152" x="1176.5" y="817"/><ellipse cx="1191.5" cy="833" fill="#B4A7E5" rx="11" ry="11" style="stroke: #A80036; stroke-width: 1.0;"/><path d="M1192.4531,829.6406 L1192.4531,836.2969 L1194.1719,836.2969 Q1194.7813,836.2969 1195.0469,836.5313 Q1195.3125,836.7656 1195.3125,837.1563 Q1195.3125,837.5313 1195.0469,837.7656 Q1194.7813,838 1194.1719,838 L1189.0313,838 Q1188.4219,838 1188.1563,837.7656 Q1187.8906,837.5313 1187.8906,837.1406 Q1187.8906,836.7656 1188.1563,836.5313 Q1188.4219,836.2969 1189.0313,836.2969 L1190.75,836.2969 L1190.75,829.6406 L1189.0313,829.6406 Q1188.4219,829.6406 1188.1563,829.4063 Q1187.8906,829.1719 1187.8906,828.7813 Q1187.8906,828.4063 1188.1563,828.1719 Q1188.4219,827.9375 1189.0313,827.9375 L1194.1719,827.9375 Q1194.7813,827.9375 1195.0469,828.1719 Q1195.3125,828.4063 1195.3125,828.7813 Q1195.3125,829.1719 1195.0469,829.4063 Q1194.7813,829.6406 1194.1719,829.6406 L1192.4531,829.6406 Z "/><text fill="#000000" font-family="sans-serif" font-size="12" font-style="italic" lengthAdjust="spacingAndGlyphs" textLength="120" x="1205.5" y="837.9102">ObjectListener_Model</text><line style="stroke: #A80036; stroke-width: 1.5;" x1="1177.5" x2="1327.5" y1="849" y2="849"/><line style="stroke: #A80036; stroke-width: 1.5;" x1="1177.5" x2="1327.5" y1="857" y2="857"/><rect fill="#FEFECE" filter="url(#f1)" height="48" style="stroke: #A80036; stroke-width: 1.5;" width="132" x="1277.5" y="946"/><ellipse cx="1292.5" cy="962" fill="#ADD1B2" rx="11" ry="11" style="stroke: #A80036; stroke-width: 1.0;"/><path d="M1295.2656,957.875 Q1295.4219,957.6563 1295.6094,957.5469 Q1295.7969,957.4375 1296.0156,957.4375 Q1296.3906,957.4375 1296.625,957.6953 Q1296.8594,957.9531 1296.8594,958.5625 L1296.8594,960.0156 Q1296.8594,960.625 1296.625,960.8906 Q1296.3906,961.1563 1296.0156,961.1563 Q1295.6719,961.1563 1295.4688,960.9531 Q1295.2656,960.7656 1295.1563,960.25 Q1295.1094,959.8906 1294.9219,959.7031 Q1294.5938,959.3281 1293.9844,959.1094 Q1293.375,958.8906 1292.75,958.8906 Q1291.9844,958.8906 1291.3516,959.2188 Q1290.7188,959.5469 1290.2266,960.2969 Q1289.7344,961.0469 1289.7344,962.0781 L1289.7344,963.1719 Q1289.7344,964.4063 1290.625,965.2266 Q1291.5156,966.0469 1293.1094,966.0469 Q1294.0469,966.0469 1294.7031,965.7969 Q1295.0938,965.6406 1295.5156,965.2031 Q1295.7813,964.9375 1295.9297,964.8594 Q1296.0781,964.7813 1296.2813,964.7813 Q1296.6094,964.7813 1296.8672,965.0391 Q1297.125,965.2969 1297.125,965.6406 Q1297.125,965.9844 1296.7813,966.3906 Q1296.2813,966.9688 1295.4844,967.2969 Q1294.4063,967.75 1293.1094,967.75 Q1291.5938,967.75 1290.3906,967.125 Q1289.4063,966.625 1288.7188,965.5547 Q1288.0313,964.4844 1288.0313,963.2031 L1288.0313,962.0469 Q1288.0313,960.7188 1288.6484,959.5703 Q1289.2656,958.4219 1290.3594,957.8047 Q1291.4531,957.1875 1292.6875,957.1875 Q1293.4219,957.1875 1294.0703,957.3516 Q1294.7188,957.5156 1295.2656,957.875 Z "/><text fill="#000000" font-family="sans-serif" font-size="12" lengthAdjust="spacingAndGlyphs" textLength="100" x="1306.5" y="966.9102">ObjetTable_Model</text><line style="stroke: #A80036; stroke-width: 1.5;" x1="1278.5" x2="1408.5" y1="978" y2="978"/><line style="stroke: #A80036; stroke-width: 1.5;" x1="1278.5" x2="1408.5" y1="986" y2="986"/><rect fill="#FEFECE" filter="url(#f1)" height="48" style="stroke: #A80036; stroke-width: 1.5;" width="135" x="1412.5" y="817"/><ellipse cx="1427.5" cy="833" fill="#ADD1B2" rx="11" ry="11" style="stroke: #A80036; stroke-width: 1.0;"/><path d="M1430.2656,828.875 Q1430.4219,828.6563 1430.6094,828.5469 Q1430.7969,828.4375 1431.0156,828.4375 Q1431.3906,828.4375 1431.625,828.6953 Q1431.8594,828.9531 1431.8594,829.5625 L1431.8594,831.0156 Q1431.8594,831.625 1431.625,831.8906 Q1431.3906,832.1563 1431.0156,832.1563 Q1430.6719,832.1563 1430.4688,831.9531 Q1430.2656,831.7656 1430.1563,831.25 Q1430.1094,830.8906 1429.9219,830.7031 Q1429.5938,830.3281 1428.9844,830.1094 Q1428.375,829.8906 1427.75,829.8906 Q1426.9844,829.8906 1426.3516,830.2188 Q1425.7188,830.5469 1425.2266,831.2969 Q1424.7344,832.0469 1424.7344,833.0781 L1424.7344,834.1719 Q1424.7344,835.4063 1425.625,836.2266 Q1426.5156,837.0469 1428.1094,837.0469 Q1429.0469,837.0469 1429.7031,836.7969 Q1430.0938,836.6406 1430.5156,836.2031 Q1430.7813,835.9375 1430.9297,835.8594 Q1431.0781,835.7813 1431.2813,835.7813 Q1431.6094,835.7813 1431.8672,836.0391 Q1432.125,836.2969 1432.125,836.6406 Q1432.125,836.9844 1431.7813,837.3906 Q1431.2813,837.9688 1430.4844,838.2969 Q1429.4063,838.75 1428.1094,838.75 Q1426.5938,838.75 1425.3906,838.125 Q1424.4063,837.625 1423.7188,836.5547 Q1423.0313,835.4844 1423.0313,834.2031 L1423.0313,833.0469 Q1423.0313,831.7188 1423.6484,830.5703 Q1424.2656,829.4219 1425.3594,828.8047 Q1426.4531,828.1875 1427.6875,828.1875 Q1428.4219,828.1875 1429.0703,828.3516 Q1429.7188,828.5156 1430.2656,828.875 Z "/><text fill="#000000" font-family="sans-serif" font-size="12" lengthAdjust="spacingAndGlyphs" textLength="103" x="1441.5" y="837.9102">ObjectState_Model</text><line style="stroke: #A80036; stroke-width: 1.5;" x1="1413.5" x2="1546.5" y1="849" y2="849"/><line style="stroke: #A80036; stroke-width: 1.5;" x1="1413.5" x2="1546.5" y1="857" y2="857"/><rect fill="#FEFECE" filter="url(#f1)" height="48" style="stroke: #A80036; stroke-width: 1.5;" width="101" x="1446.5" y="1075"/><ellipse cx="1461.5" cy="1091" fill="#ADD1B2" rx="11" ry="11" style="stroke: #A80036; stroke-width: 1.0;"/><path d="M1464.2656,1086.875 Q1464.4219,1086.6563 1464.6094,1086.5469 Q1464.7969,1086.4375 1465.0156,1086.4375 Q1465.3906,1086.4375 1465.625,1086.6953 Q1465.8594,1086.9531 1465.8594,1087.5625 L1465.8594,1089.0156 Q1465.8594,1089.625 1465.625,1089.8906 Q1465.3906,1090.1563 1465.0156,1090.1563 Q1464.6719,1090.1563 1464.4688,1089.9531 Q1464.2656,1089.7656 1464.1563,1089.25 Q1464.1094,1088.8906 1463.9219,1088.7031 Q1463.5938,1088.3281 1462.9844,1088.1094 Q1462.375,1087.8906 1461.75,1087.8906 Q1460.9844,1087.8906 1460.3516,1088.2188 Q1459.7188,1088.5469 1459.2266,1089.2969 Q1458.7344,1090.0469 1458.7344,1091.0781 L1458.7344,1092.1719 Q1458.7344,1093.4063 1459.625,1094.2266 Q1460.5156,1095.0469 1462.1094,1095.0469 Q1463.0469,1095.0469 1463.7031,1094.7969 Q1464.0938,1094.6406 1464.5156,1094.2031 Q1464.7813,1093.9375 1464.9297,1093.8594 Q1465.0781,1093.7813 1465.2813,1093.7813 Q1465.6094,1093.7813 1465.8672,1094.0391 Q1466.125,1094.2969 1466.125,1094.6406 Q1466.125,1094.9844 1465.7813,1095.3906 Q1465.2813,1095.9688 1464.4844,1096.2969 Q1463.4063,1096.75 1462.1094,1096.75 Q1460.5938,1096.75 1459.3906,1096.125 Q1458.4063,1095.625 1457.7188,1094.5547 Q1457.0313,1093.4844 1457.0313,1092.2031 L1457.0313,1091.0469 Q1457.0313,1089.7188 1457.6484,1088.5703 Q1458.2656,1087.4219 1459.3594,1086.8047 Q1460.4531,1086.1875 1461.6875,1086.1875 Q1462.4219,1086.1875 1463.0703,1086.3516 Q1463.7188,1086.5156 1464.2656,1086.875 Z "/><text fill="#000000" font-family="sans-serif" font-size="12" lengthAdjust="spacingAndGlyphs" textLength="69" x="1475.5" y="1095.9102">Objet_Model</text><line style="stroke: #A80036; stroke-width: 1.5;" x1="1447.5" x2="1546.5" y1="1107" y2="1107"/><line style="stroke: #A80036; stroke-width: 1.5;" x1="1447.5" x2="1546.5" y1="1115" y2="1115"/><rect fill="#FEFECE" filter="url(#f1)" height="48" style="stroke: #A80036; stroke-width: 1.5;" width="103" x="1225.5" y="1075"/><ellipse cx="1240.5" cy="1091" fill="#ADD1B2" rx="11" ry="11" style="stroke: #A80036; stroke-width: 1.0;"/><path d="M1243.2656,1086.875 Q1243.4219,1086.6563 1243.6094,1086.5469 Q1243.7969,1086.4375 1244.0156,1086.4375 Q1244.3906,1086.4375 1244.625,1086.6953 Q1244.8594,1086.9531 1244.8594,1087.5625 L1244.8594,1089.0156 Q1244.8594,1089.625 1244.625,1089.8906 Q1244.3906,1090.1563 1244.0156,1090.1563 Q1243.6719,1090.1563 1243.4688,1089.9531 Q1243.2656,1089.7656 1243.1563,1089.25 Q1243.1094,1088.8906 1242.9219,1088.7031 Q1242.5938,1088.3281 1241.9844,1088.1094 Q1241.375,1087.8906 1240.75,1087.8906 Q1239.9844,1087.8906 1239.3516,1088.2188 Q1238.7188,1088.5469 1238.2266,1089.2969 Q1237.7344,1090.0469 1237.7344,1091.0781 L1237.7344,1092.1719 Q1237.7344,1093.4063 1238.625,1094.2266 Q1239.5156,1095.0469 1241.1094,1095.0469 Q1242.0469,1095.0469 1242.7031,1094.7969 Q1243.0938,1094.6406 1243.5156,1094.2031 Q1243.7813,1093.9375 1243.9297,1093.8594 Q1244.0781,1093.7813 1244.2813,1093.7813 Q1244.6094,1093.7813 1244.8672,1094.0391 Q1245.125,1094.2969 1245.125,1094.6406 Q1245.125,1094.9844 1244.7813,1095.3906 Q1244.2813,1095.9688 1243.4844,1096.2969 Q1242.4063,1096.75 1241.1094,1096.75 Q1239.5938,1096.75 1238.3906,1096.125 Q1237.4063,1095.625 1236.7188,1094.5547 Q1236.0313,1093.4844 1236.0313,1092.2031 L1236.0313,1091.0469 Q1236.0313,1089.7188 1236.6484,1088.5703 Q1237.2656,1087.4219 1238.3594,1086.8047 Q1239.4531,1086.1875 1240.6875,1086.1875 Q1241.4219,1086.1875 1242.0703,1086.3516 Q1242.7188,1086.5156 1243.2656,1086.875 Z "/><text fill="#000000" font-family="sans-serif" font-size="12" lengthAdjust="spacingAndGlyphs" textLength="71" x="1254.5" y="1095.9102">Piece_Model</text><line style="stroke: #A80036; stroke-width: 1.5;" x1="1226.5" x2="1327.5" y1="1107" y2="1107"/><line style="stroke: #A80036; stroke-width: 1.5;" x1="1226.5" x2="1327.5" y1="1115" y2="1115"/><rect fill="#FEFECE" filter="url(#f1)" height="48" style="stroke: #A80036; stroke-width: 1.5;" width="176" x="225.5" y="412"/><ellipse cx="240.5" cy="428" fill="#ADD1B2" rx="11" ry="11" style="stroke: #A80036; stroke-width: 1.0;"/><path d="M243.2656,423.875 Q243.4219,423.6563 243.6094,423.5469 Q243.7969,423.4375 244.0156,423.4375 Q244.3906,423.4375 244.625,423.6953 Q244.8594,423.9531 244.8594,424.5625 L244.8594,426.0156 Q244.8594,426.625 244.625,426.8906 Q244.3906,427.1563 244.0156,427.1563 Q243.6719,427.1563 243.4688,426.9531 Q243.2656,426.7656 243.1563,426.25 Q243.1094,425.8906 242.9219,425.7031 Q242.5938,425.3281 241.9844,425.1094 Q241.375,424.8906 240.75,424.8906 Q239.9844,424.8906 239.3516,425.2188 Q238.7188,425.5469 238.2266,426.2969 Q237.7344,427.0469 237.7344,428.0781 L237.7344,429.1719 Q237.7344,430.4063 238.625,431.2266 Q239.5156,432.0469 241.1094,432.0469 Q242.0469,432.0469 242.7031,431.7969 Q243.0938,431.6406 243.5156,431.2031 Q243.7813,430.9375 243.9297,430.8594 Q244.0781,430.7813 244.2813,430.7813 Q244.6094,430.7813 244.8672,431.0391 Q245.125,431.2969 245.125,431.6406 Q245.125,431.9844 244.7813,432.3906 Q244.2813,432.9688 243.4844,433.2969 Q242.4063,433.75 241.1094,433.75 Q239.5938,433.75 238.3906,433.125 Q237.4063,432.625 236.7188,431.5547 Q236.0313,430.4844 236.0313,429.2031 L236.0313,428.0469 Q236.0313,426.7188 236.6484,425.5703 Q237.2656,424.4219 238.3594,423.8047 Q239.4531,423.1875 240.6875,423.1875 Q241.4219,423.1875 242.0703,423.3516 Q242.7188,423.5156 243.2656,423.875 Z "/><text fill="#000000" font-family="sans-serif" font-size="12" lengthAdjust="spacingAndGlyphs" textLength="144" x="254.5" y="432.9102">Consommation_Controler</text><line style="stroke: #A80036; stroke-width: 1.5;" x1="226.5" x2="400.5" y1="444" y2="444"/><line style="stroke: #A80036; stroke-width: 1.5;" x1="226.5" x2="400.5" y1="452" y2="452"/><rect fill="#FEFECE" filter="url(#f1)" height="48" style="stroke: #A80036; stroke-width: 1.5;" width="139" x="437" y="412"/><ellipse cx="452" cy="428" fill="#ADD1B2" rx="11" ry="11" style="stroke: #A80036; stroke-width: 1.0;"/><path d="M454.7656,423.875 Q454.9219,423.6563 455.1094,423.5469 Q455.2969,423.4375 455.5156,423.4375 Q455.8906,423.4375 456.125,423.6953 Q456.3594,423.9531 456.3594,424.5625 L456.3594,426.0156 Q456.3594,426.625 456.125,426.8906 Q455.8906,427.1563 455.5156,427.1563 Q455.1719,427.1563 454.9688,426.9531 Q454.7656,426.7656 454.6563,426.25 Q454.6094,425.8906 454.4219,425.7031 Q454.0938,425.3281 453.4844,425.1094 Q452.875,424.8906 452.25,424.8906 Q451.4844,424.8906 450.8516,425.2188 Q450.2188,425.5469 449.7266,426.2969 Q449.2344,427.0469 449.2344,428.0781 L449.2344,429.1719 Q449.2344,430.4063 450.125,431.2266 Q451.0156,432.0469 452.6094,432.0469 Q453.5469,432.0469 454.2031,431.7969 Q454.5938,431.6406 455.0156,431.2031 Q455.2813,430.9375 455.4297,430.8594 Q455.5781,430.7813 455.7813,430.7813 Q456.1094,430.7813 456.3672,431.0391 Q456.625,431.2969 456.625,431.6406 Q456.625,431.9844 456.2813,432.3906 Q455.7813,432.9688 454.9844,433.2969 Q453.9063,433.75 452.6094,433.75 Q451.0938,433.75 449.8906,433.125 Q448.9063,432.625 448.2188,431.5547 Q447.5313,430.4844 447.5313,429.2031 L447.5313,428.0469 Q447.5313,426.7188 448.1484,425.5703 Q448.7656,424.4219 449.8594,423.8047 Q450.9531,423.1875 452.1875,423.1875 Q452.9219,423.1875 453.5703,423.3516 Q454.2188,423.5156 454.7656,423.875 Z "/><text fill="#000000" font-family="sans-serif" font-size="12" lengthAdjust="spacingAndGlyphs" textLength="107" x="466" y="432.9102">Scenario_Controler</text><line style="stroke: #A80036; stroke-width: 1.5;" x1="438" x2="575" y1="444" y2="444"/><line style="stroke: #A80036; stroke-width: 1.5;" x1="438" x2="575" y1="452" y2="452"/><rect fill="#FEFECE" filter="url(#f1)" height="48" style="stroke: #A80036; stroke-width: 1.5;" width="150" x="611.5" y="412"/><ellipse cx="626.5" cy="428" fill="#ADD1B2" rx="11" ry="11" style="stroke: #A80036; stroke-width: 1.0;"/><path d="M629.2656,423.875 Q629.4219,423.6563 629.6094,423.5469 Q629.7969,423.4375 630.0156,423.4375 Q630.3906,423.4375 630.625,423.6953 Q630.8594,423.9531 630.8594,424.5625 L630.8594,426.0156 Q630.8594,426.625 630.625,426.8906 Q630.3906,427.1563 630.0156,427.1563 Q629.6719,427.1563 629.4688,426.9531 Q629.2656,426.7656 629.1563,426.25 Q629.1094,425.8906 628.9219,425.7031 Q628.5938,425.3281 627.9844,425.1094 Q627.375,424.8906 626.75,424.8906 Q625.9844,424.8906 625.3516,425.2188 Q624.7188,425.5469 624.2266,426.2969 Q623.7344,427.0469 623.7344,428.0781 L623.7344,429.1719 Q623.7344,430.4063 624.625,431.2266 Q625.5156,432.0469 627.1094,432.0469 Q628.0469,432.0469 628.7031,431.7969 Q629.0938,431.6406 629.5156,431.2031 Q629.7813,430.9375 629.9297,430.8594 Q630.0781,430.7813 630.2813,430.7813 Q630.6094,430.7813 630.8672,431.0391 Q631.125,431.2969 631.125,431.6406 Q631.125,431.9844 630.7813,432.3906 Q630.2813,432.9688 629.4844,433.2969 Q628.4063,433.75 627.1094,433.75 Q625.5938,433.75 624.3906,433.125 Q623.4063,432.625 622.7188,431.5547 Q622.0313,430.4844 622.0313,429.2031 L622.0313,428.0469 Q622.0313,426.7188 622.6484,425.5703 Q623.2656,424.4219 624.3594,423.8047 Q625.4531,423.1875 626.6875,423.1875 Q627.4219,423.1875 628.0703,423.3516 Q628.7188,423.5156 629.2656,423.875 Z "/><text fill="#000000" font-family="sans-serif" font-size="12" lengthAdjust="spacingAndGlyphs" textLength="118" x="640.5" y="432.9102">ObjetTable_Controler</text><line style="stroke: #A80036; stroke-width: 1.5;" x1="612.5" x2="760.5" y1="444" y2="444"/><line style="stroke: #A80036; stroke-width: 1.5;" x1="612.5" x2="760.5" y1="452" y2="452"/><rect fill="#FEFECE" filter="url(#f1)" height="48" style="stroke: #A80036; stroke-width: 1.5;" width="200" x="531.5" y="80"/><ellipse cx="546.5" cy="96" fill="#B4A7E5" rx="11" ry="11" style="stroke: #A80036; stroke-width: 1.0;"/><path d="M547.4531,92.6406 L547.4531,99.2969 L549.1719,99.2969 Q549.7813,99.2969 550.0469,99.5313 Q550.3125,99.7656 550.3125,100.1563 Q550.3125,100.5313 550.0469,100.7656 Q549.7813,101 549.1719,101 L544.0313,101 Q543.4219,101 543.1563,100.7656 Q542.8906,100.5313 542.8906,100.1406 Q542.8906,99.7656 543.1563,99.5313 Q543.4219,99.2969 544.0313,99.2969 L545.75,99.2969 L545.75,92.6406 L544.0313,92.6406 Q543.4219,92.6406 543.1563,92.4063 Q542.8906,92.1719 542.8906,91.7813 Q542.8906,91.4063 543.1563,91.1719 Q543.4219,90.9375 544.0313,90.9375 L549.1719,90.9375 Q549.7813,90.9375 550.0469,91.1719 Q550.3125,91.4063 550.3125,91.7813 Q550.3125,92.1719 550.0469,92.4063 Q549.7813,92.6406 549.1719,92.6406 L547.4531,92.6406 Z "/><text fill="#000000" font-family="sans-serif" font-size="12" font-style="italic" lengthAdjust="spacingAndGlyphs" textLength="168" x="560.5" y="100.9102">ObjetTableInterface_Controler</text><line style="stroke: #A80036; stroke-width: 1.5;" x1="532.5" x2="730.5" y1="112" y2="112"/><line style="stroke: #A80036; stroke-width: 1.5;" x1="532.5" x2="730.5" y1="120" y2="120"/><rect fill="#FEFECE" filter="url(#f1)" height="48" style="stroke: #A80036; stroke-width: 1.5;" width="223" x="249.5" y="80"/><ellipse cx="264.5" cy="96" fill="#B4A7E5" rx="11" ry="11" style="stroke: #A80036; stroke-width: 1.0;"/><path d="M265.4531,92.6406 L265.4531,99.2969 L267.1719,99.2969 Q267.7813,99.2969 268.0469,99.5313 Q268.3125,99.7656 268.3125,100.1563 Q268.3125,100.5313 268.0469,100.7656 Q267.7813,101 267.1719,101 L262.0313,101 Q261.4219,101 261.1563,100.7656 Q260.8906,100.5313 260.8906,100.1406 Q260.8906,99.7656 261.1563,99.5313 Q261.4219,99.2969 262.0313,99.2969 L263.75,99.2969 L263.75,92.6406 L262.0313,92.6406 Q261.4219,92.6406 261.1563,92.4063 Q260.8906,92.1719 260.8906,91.7813 Q260.8906,91.4063 261.1563,91.1719 Q261.4219,90.9375 262.0313,90.9375 L267.1719,90.9375 Q267.7813,90.9375 268.0469,91.1719 Q268.3125,91.4063 268.3125,91.7813 Q268.3125,92.1719 268.0469,92.4063 Q267.7813,92.6406 267.1719,92.6406 L265.4531,92.6406 Z "/><text fill="#000000" font-family="sans-serif" font-size="12" font-style="italic" lengthAdjust="spacingAndGlyphs" textLength="191" x="278.5" y="100.9102">ConsommationInterface_Controler</text><line style="stroke: #A80036; stroke-width: 1.5;" x1="250.5" x2="471.5" y1="112" y2="112"/><line style="stroke: #A80036; stroke-width: 1.5;" x1="250.5" x2="471.5" y1="120" y2="120"/><rect fill="#FEFECE" filter="url(#f1)" height="48" style="stroke: #A80036; stroke-width: 1.5;" width="187" x="791.5" y="80"/><ellipse cx="806.5" cy="96" fill="#B4A7E5" rx="11" ry="11" style="stroke: #A80036; stroke-width: 1.0;"/><path d="M807.4531,92.6406 L807.4531,99.2969 L809.1719,99.2969 Q809.7813,99.2969 810.0469,99.5313 Q810.3125,99.7656 810.3125,100.1563 Q810.3125,100.5313 810.0469,100.7656 Q809.7813,101 809.1719,101 L804.0313,101 Q803.4219,101 803.1563,100.7656 Q802.8906,100.5313 802.8906,100.1406 Q802.8906,99.7656 803.1563,99.5313 Q803.4219,99.2969 804.0313,99.2969 L805.75,99.2969 L805.75,92.6406 L804.0313,92.6406 Q803.4219,92.6406 803.1563,92.4063 Q802.8906,92.1719 802.8906,91.7813 Q802.8906,91.4063 803.1563,91.1719 Q803.4219,90.9375 804.0313,90.9375 L809.1719,90.9375 Q809.7813,90.9375 810.0469,91.1719 Q810.3125,91.4063 810.3125,91.7813 Q810.3125,92.1719 810.0469,92.4063 Q809.7813,92.6406 809.1719,92.6406 L807.4531,92.6406 Z "/><text fill="#000000" font-family="sans-serif" font-size="12" font-style="italic" lengthAdjust="spacingAndGlyphs" textLength="155" x="820.5" y="100.9102">ScenarioInterface_Controler</text><line style="stroke: #A80036; stroke-width: 1.5;" x1="792.5" x2="977.5" y1="112" y2="112"/><line style="stroke: #A80036; stroke-width: 1.5;" x1="792.5" x2="977.5" y1="120" y2="120"/><rect fill="#FEFECE" filter="url(#f1)" height="48" style="stroke: #A80036; stroke-width: 1.5;" width="109" x="30.5" y="565"/><ellipse cx="45.5" cy="581" fill="#ADD1B2" rx="11" ry="11" style="stroke: #A80036; stroke-width: 1.0;"/><path d="M48.2656,576.875 Q48.4219,576.6563 48.6094,576.5469 Q48.7969,576.4375 49.0156,576.4375 Q49.3906,576.4375 49.625,576.6953 Q49.8594,576.9531 49.8594,577.5625 L49.8594,579.0156 Q49.8594,579.625 49.625,579.8906 Q49.3906,580.1563 49.0156,580.1563 Q48.6719,580.1563 48.4688,579.9531 Q48.2656,579.7656 48.1563,579.25 Q48.1094,578.8906 47.9219,578.7031 Q47.5938,578.3281 46.9844,578.1094 Q46.375,577.8906 45.75,577.8906 Q44.9844,577.8906 44.3516,578.2188 Q43.7188,578.5469 43.2266,579.2969 Q42.7344,580.0469 42.7344,581.0781 L42.7344,582.1719 Q42.7344,583.4063 43.625,584.2266 Q44.5156,585.0469 46.1094,585.0469 Q47.0469,585.0469 47.7031,584.7969 Q48.0938,584.6406 48.5156,584.2031 Q48.7813,583.9375 48.9297,583.8594 Q49.0781,583.7813 49.2813,583.7813 Q49.6094,583.7813 49.8672,584.0391 Q50.125,584.2969 50.125,584.6406 Q50.125,584.9844 49.7813,585.3906 Q49.2813,585.9688 48.4844,586.2969 Q47.4063,586.75 46.1094,586.75 Q44.5938,586.75 43.3906,586.125 Q42.4063,585.625 41.7188,584.5547 Q41.0313,583.4844 41.0313,582.2031 L41.0313,581.0469 Q41.0313,579.7188 41.6484,578.5703 Q42.2656,577.4219 43.3594,576.8047 Q44.4531,576.1875 45.6875,576.1875 Q46.4219,576.1875 47.0703,576.3516 Q47.7188,576.5156 48.2656,576.875 Z "/><text fill="#000000" font-family="sans-serif" font-size="12" lengthAdjust="spacingAndGlyphs" textLength="77" x="59.5" y="585.9102">Scenario_Vue</text><line style="stroke: #A80036; stroke-width: 1.5;" x1="31.5" x2="138.5" y1="597" y2="597"/><line style="stroke: #A80036; stroke-width: 1.5;" x1="31.5" x2="138.5" y1="605" y2="605"/><path d="M338.764,865.294 C368.535,888.209 413.723,922.99 443.428,945.854 " fill="none" style="stroke: #A80036; stroke-width: 1.0;"/><text fill="#000000" font-family="sans-serif" font-size="13" lengthAdjust="spacingAndGlyphs" textLength="20" x="348.3527" y="886.2586">0..*</text><path d="M555.975,865.294 C537.751,888.209 510.09,922.99 491.908,945.854 " fill="none" style="stroke: #A80036; stroke-width: 1.0;"/><path d="M296.7,613.071 C298.872,654.837 303.486,743.578 306.257,796.872 " fill="none" style="stroke: #A80036; stroke-width: 1.0; stroke-dasharray: 7.0,7.0;"/><polygon fill="none" points="313.255,796.648,307.303,816.984,299.274,797.375,313.255,796.648" style="stroke: #A80036; stroke-width: 1.0;"/><text fill="#000000" font-family="sans-serif" font-size="13" lengthAdjust="spacingAndGlyphs" textLength="60" x="303.5" y="710.4951">implement</text><path d="M461.904,613.071 C433.041,655.767 370.993,747.555 335.283,800.38 " fill="none" style="stroke: #A80036; stroke-width: 1.0; stroke-dasharray: 7.0,7.0;"/><polygon fill="none" points="341.059,804.335,324.058,816.984,329.46,796.495,341.059,804.335" style="stroke: #A80036; stroke-width: 1.0;"/><text fill="#000000" font-family="sans-serif" font-size="13" lengthAdjust="spacingAndGlyphs" textLength="60" x="407.5" y="710.4951">implement</text><path d="M824.5,865.294 C824.5,888.209 824.5,922.99 824.5,945.854 " fill="none" style="stroke: #A80036; stroke-width: 1.0;"/><text fill="#000000" font-family="sans-serif" font-size="13" lengthAdjust="spacingAndGlyphs" textLength="20" x="790.9625" y="886.2586">0..*</text><path d="M1001.951,865.146 C962.832,888.041 903.295,922.885 864.143,945.799 " fill="none" style="stroke: #A80036; stroke-width: 1.0;"/><path d="M823.766,994.294 C823.045,1017.209 821.949,1051.99 821.229,1074.854 " fill="none" style="stroke: #A80036; stroke-width: 1.0;"/><text fill="#000000" font-family="sans-serif" font-size="13" lengthAdjust="spacingAndGlyphs" textLength="20" x="798.8533" y="1064.1567">0..*</text><path d="M783.858,994.146 C743.657,1017.041 682.474,1051.885 642.24,1074.799 " fill="none" style="stroke: #A80036; stroke-width: 1.0;"/><text fill="#000000" font-family="sans-serif" font-size="13" lengthAdjust="spacingAndGlyphs" textLength="20" x="630.1171" y="1064.0877">0..*</text><path d="M864.413,994.146 C903.893,1017.041 963.979,1051.885 1003.491,1074.799 " fill="none" style="stroke: #A80036; stroke-width: 1.0;"/><text fill="#000000" font-family="sans-serif" font-size="13" lengthAdjust="spacingAndGlyphs" textLength="20" x="970.8043" y="1064.0877">0..*</text><path d="M648.983,613.071 C666.995,638.137 696.844,679.254 723.5,714 C746.1,743.459 772.348,776.16 792.42,800.864 " fill="none" style="stroke: #A80036; stroke-width: 1.0; stroke-dasharray: 7.0,7.0;"/><polygon fill="none" points="797.997,796.626,805.209,816.551,787.146,805.473,797.997,796.626" style="stroke: #A80036; stroke-width: 1.0;"/><text fill="#000000" font-family="sans-serif" font-size="13" lengthAdjust="spacingAndGlyphs" textLength="60" x="724.5" y="710.4951">implement</text><path d="M1660.48,613.045 C1642.06,628.491 1615.59,647.653 1588.5,657 C1452.13,704.059 1068.7,629.845 940.5,696 C897.254,718.317 864.549,764.697 845.066,798.816 " fill="none" style="stroke: #A80036; stroke-width: 1.0; stroke-dasharray: 7.0,7.0;"/><polygon fill="none" points="851.045,802.477,835.381,816.747,838.727,795.823,851.045,802.477" style="stroke: #A80036; stroke-width: 1.0;"/><text fill="#000000" font-family="sans-serif" font-size="13" lengthAdjust="spacingAndGlyphs" textLength="60" x="941.5" y="710.4951">implement</text><path d="M2009.25,613.273 C1993.29,628.406 1970.47,647.102 1946.5,657 C1743.86,740.693 1674.73,692.938 1456.5,714 C1343.8,724.877 1055.08,714.793 948.5,753 C917.424,764.14 887.009,785.274 864.079,803.922 " fill="none" style="stroke: #A80036; stroke-width: 1.0; stroke-dasharray: 7.0,7.0;"/><polygon fill="none" points="868.582,809.282,848.803,816.883,859.525,798.606,868.582,809.282" style="stroke: #A80036; stroke-width: 1.0;"/><text fill="#000000" font-family="sans-serif" font-size="13" lengthAdjust="spacingAndGlyphs" textLength="60" x="1825.5" y="710.4951">implement</text><path d="M1371.75,994.294 C1399.53,1017.209 1441.71,1051.99 1469.43,1074.854 " fill="none" style="stroke: #A80036; stroke-width: 1.0;"/><text fill="#000000" font-family="sans-serif" font-size="13" lengthAdjust="spacingAndGlyphs" textLength="20" x="1439.8027" y="1064.1567">0..*</text><path d="M1331.39,994.294 C1319.49,1017.209 1301.41,1051.99 1289.53,1074.854 " fill="none" style="stroke: #A80036; stroke-width: 1.0;"/><text fill="#000000" font-family="sans-serif" font-size="13" lengthAdjust="spacingAndGlyphs" textLength="20" x="1270.1783" y="1064.1567">0..*</text><path d="M1446.34,1099 C1414.3,1099 1372.57,1099 1338.74,1099 " fill="none" style="stroke: #A80036; stroke-width: 1.0;"/><text fill="#000000" font-family="sans-serif" font-size="13" lengthAdjust="spacingAndGlyphs" textLength="20" x="1418.5679" y="1095.4926">0..*</text><path d="M1269.19,865.294 C1285.61,888.209 1310.53,922.99 1326.92,945.854 " fill="none" style="stroke: #A80036; stroke-width: 1.0;"/><text fill="#000000" font-family="sans-serif" font-size="13" lengthAdjust="spacingAndGlyphs" textLength="20" x="1258.7233" y="886.2586">0..*</text><path d="M1455.37,865.294 C1430.65,888.209 1393.13,922.99 1368.47,945.854 " fill="none" style="stroke: #A80036; stroke-width: 1.0;"/><text fill="#000000" font-family="sans-serif" font-size="13" lengthAdjust="spacingAndGlyphs" textLength="20" x="1386.0222" y="886.2586">0..*</text><path d="M1462.3,1074.935 C1433.94,1057.078 1392.28,1034.212 1352,1024.5 C1286.76,1008.768 1266.48,1009.795 1201,1024.5 C1157.91,1034.177 1112.74,1057.048 1081.88,1074.916 " fill="none" style="stroke: #A80036; stroke-width: 1.0;"/><path d="M1225.15,1099 C1193.59,1099 1152.66,1099 1117.74,1099 " fill="none" style="stroke: #A80036; stroke-width: 1.0;"/><path d="M1464.91,613.071 C1424.51,656.232 1337.15,749.56 1287.98,802.092 " fill="none" style="stroke: #A80036; stroke-width: 1.0; stroke-dasharray: 7.0,7.0;"/><polygon fill="none" points="1292.82,807.166,1274.04,816.984,1282.6,797.599,1292.82,807.166" style="stroke: #A80036; stroke-width: 1.0;"/><text fill="#000000" font-family="sans-serif" font-size="13" lengthAdjust="spacingAndGlyphs" textLength="60" x="1387.5" y="710.4951">implement</text><path d="M851.042,613.176 C870.299,626.801 895.715,643.874 919.5,657 C930.997,663.345 1124.16,746.375 1135.5,753 C1161.02,767.913 1187.61,787.325 1208.97,804.027 " fill="none" style="stroke: #A80036; stroke-width: 1.0; stroke-dasharray: 7.0,7.0;"/><polygon fill="none" points="1213.6,798.761,1224.87,816.704,1204.87,809.707,1213.6,798.761" style="stroke: #A80036; stroke-width: 1.0;"/><text fill="#000000" font-family="sans-serif" font-size="13" lengthAdjust="spacingAndGlyphs" textLength="60" x="1048.5" y="710.4951">implement</text><path d="M1041.91,613.071 C1081.96,656.232 1168.57,749.56 1217.32,802.092 " fill="none" style="stroke: #A80036; stroke-width: 1.0; stroke-dasharray: 7.0,7.0;"/><polygon fill="none" points="1222.67,797.563,1231.14,816.984,1212.41,807.086,1222.67,797.563" style="stroke: #A80036; stroke-width: 1.0;"/><text fill="#000000" font-family="sans-serif" font-size="13" lengthAdjust="spacingAndGlyphs" textLength="60" x="1136.5" y="710.4951">implement</text><path d="M1252.5,613.071 C1252.5,654.837 1252.5,743.578 1252.5,796.872 " fill="none" style="stroke: #A80036; stroke-width: 1.0; stroke-dasharray: 7.0,7.0;"/><polygon fill="none" points="1259.5,796.985,1252.5,816.984,1245.5,796.984,1259.5,796.985" style="stroke: #A80036; stroke-width: 1.0;"/><text fill="#000000" font-family="sans-serif" font-size="13" lengthAdjust="spacingAndGlyphs" textLength="60" x="1253.5" y="710.4951">implement</text><path d="M347.146,147.42 C342.025,166.08 337.5,188.401 337.5,209 C337.5,209 337.5,209 337.5,351 C337.5,372.234 330.322,395.365 323.817,411.968 " fill="none" style="stroke: #A80036; stroke-width: 1.0; stroke-dasharray: 7.0,7.0;"/><polygon fill="none" points="340.473,145.3,352.971,128.19,353.872,149.36,340.473,145.3" style="stroke: #A80036; stroke-width: 1.0;"/><text fill="#000000" font-family="sans-serif" font-size="13" lengthAdjust="spacingAndGlyphs" textLength="60" x="338.5" y="285.4951">implement</text><path d="M801.328,135.5 C752.08,156.02 699.5,183.822 699.5,209 C699.5,209 699.5,209 699.5,351 C699.5,364.978 630.562,392.252 575.088,411.936 " fill="none" style="stroke: #A80036; stroke-width: 1.0; stroke-dasharray: 7.0,7.0;"/><polygon fill="none" points="798.756,128.99,819.923,128.01,803.985,141.97,798.756,128.99" style="stroke: #A80036; stroke-width: 1.0;"/><text fill="#000000" font-family="sans-serif" font-size="13" lengthAdjust="spacingAndGlyphs" textLength="60" x="700.5" y="285.4951">implement</text><path d="M594.016,143.52 C580.039,161.85 567.5,184.977 567.5,209 C567.5,209 567.5,209 567.5,351 C567.5,379.196 590.074,398.766 615.559,411.875 " fill="none" style="stroke: #A80036; stroke-width: 1.0; stroke-dasharray: 7.0,7.0;"/><polygon fill="none" points="588.708,138.96,606.939,128.16,599.422,147.97,588.708,138.96" style="stroke: #A80036; stroke-width: 1.0;"/><text fill="#000000" font-family="sans-serif" font-size="13" lengthAdjust="spacingAndGlyphs" textLength="60" x="568.5" y="285.4951">implement</text><path d="M310.727,460.263 C307.533,487.054 302.288,531.057 298.864,559.781 " fill="none" style="stroke: #A80036; stroke-width: 1.0;"/><polygon fill="#A80036" points="298.247,564.959,303.2836,556.4954,298.8385,559.9941,295.3398,555.549,298.247,564.959" style="stroke: #A80036; stroke-width: 1.0;"/><text fill="#000000" font-family="sans-serif" font-size="13" lengthAdjust="spacingAndGlyphs" textLength="20" x="276.3884" y="554.2887">1..*</text><path d="M471.563,460.019 C455.968,469.119 436.97,478.664 418.5,484 C317.471,513.186 279.298,459.903 182.5,501 C152.047,513.929 124.731,540.48 106.907,560.869 " fill="none" style="stroke: #A80036; stroke-width: 1.0;"/><polygon fill="#A80036" points="103.4702,564.859,112.3754,560.6522,106.7341,561.0713,106.3151,555.43,103.4702,564.859" style="stroke: #A80036; stroke-width: 1.0;"/><text fill="#000000" font-family="sans-serif" font-size="13" lengthAdjust="spacingAndGlyphs" textLength="20" x="85.6407" y="554.163">1..*</text><path d="M761.669,438.131 C918.381,441.415 1274.65,453.977 1385.5,501 C1416.79,514.273 1445.42,540.948 1464.14,561.281 " fill="none" style="stroke: #A80036; stroke-width: 1.0;"/><polygon fill="#A80036" points="1467.52,565,1464.4268,555.6495,1464.1571,561.2999,1458.5066,561.0302,1467.52,565" style="stroke: #A80036; stroke-width: 1.0;"/><text fill="#000000" font-family="sans-serif" font-size="13" lengthAdjust="spacingAndGlyphs" textLength="20" x="1440.0939" y="554.3402">1..*</text><path d="M706.99,460.263 C730.979,487.498 770.636,532.522 795.893,561.198 " fill="none" style="stroke: #A80036; stroke-width: 1.0;"/><polygon fill="#A80036" points="799.205,564.959,796.2597,555.5608,795.9009,561.2063,790.2554,560.8475,799.205,564.959" style="stroke: #A80036; stroke-width: 1.0;"/><text fill="#000000" font-family="sans-serif" font-size="13" lengthAdjust="spacingAndGlyphs" textLength="20" x="771.4419" y="554.2887">1..*</text><path d="M761.545,448.848 C808.836,458.392 870.076,474.665 919.5,501 C948.605,516.508 976.603,541.708 995.708,561.005 " fill="none" style="stroke: #A80036; stroke-width: 1.0;"/><polygon fill="#A80036" points="999.408,564.781,995.9655,555.5534,995.9084,561.2099,990.2518,561.1528,999.408,564.781" style="stroke: #A80036; stroke-width: 1.0;"/><text fill="#000000" font-family="sans-serif" font-size="13" lengthAdjust="spacingAndGlyphs" textLength="20" x="971.5688" y="554.065">1..*</text><path d="M761.724,438.384 C850.085,442.192 999.801,455.533 1119.5,501 C1157.2,515.322 1195.22,541.655 1220.89,561.612 " fill="none" style="stroke: #A80036; stroke-width: 1.0;"/><polygon fill="#A80036" points="1224.9,564.757,1220.2853,556.0561,1220.9652,561.672,1215.3493,562.3518,1224.9,564.757" style="stroke: #A80036; stroke-width: 1.0;"/><text fill="#000000" font-family="sans-serif" font-size="13" lengthAdjust="spacingAndGlyphs" textLength="20" x="1195.265" y="554.0349">1..*</text><path d="M317.621,564.623 C339.102,543.678 373.771,514.276 410.5,501 C487.699,473.096 707.009,522.514 779.5,484 C802.5,471.78 814.5,463.045 814.5,437 C814.5,209 814.5,209 814.5,209 C814.5,140.75 579.828,164.08 513.5,148 C490.704,142.47 466.173,135.84 443.611,129.46 " fill="none" style="stroke: #A80036; stroke-width: 1.0;"/><polygon fill="#A80036" points="438.528,128.01,446.0898,134.3203,443.3371,129.3783,448.2791,126.6257,438.528,128.01" style="stroke: #A80036; stroke-width: 1.0;"/><text fill="#000000" font-family="sans-serif" font-size="13" lengthAdjust="spacingAndGlyphs" textLength="20" x="480.9914" y="140.477">1..*</text><path d="M648.853,564.966 C664.698,544.563 690.665,515.789 720.5,501 C790.973,466.066 885.5,515.657 885.5,437 C885.5,209 885.5,209 885.5,209 C885.5,183.367 885.5,154.18 885.5,133.26 " fill="none" style="stroke: #A80036; stroke-width: 1.0;"/><polygon fill="#A80036" points="885.5,128.13,881.5,137.13,885.5,133.13,889.5,137.13,885.5,128.13" style="stroke: #A80036; stroke-width: 1.0;"/><text fill="#000000" font-family="sans-serif" font-size="13" lengthAdjust="spacingAndGlyphs" textLength="7" x="874.075" y="149.6761">1</text><path d="M1663.05,564.667 C1644.28,545.967 1616.18,519.832 1588.5,501 C1535.91,465.225 1460.5,500.604 1460.5,437 C1460.5,209 1460.5,209 1460.5,209 C1460.5,161.14 1148.08,127.33 983.821,112.86 " fill="none" style="stroke: #A80036; stroke-width: 1.0;"/><polygon fill="#A80036" points="978.523,112.4,987.1392,117.1708,983.5039,112.8367,987.838,109.2014,978.523,112.4" style="stroke: #A80036; stroke-width: 1.0;"/><text fill="#000000" font-family="sans-serif" font-size="13" lengthAdjust="spacingAndGlyphs" textLength="7" x="986.4331" y="109.9905">1</text><path d="M2017.08,564.927 C2000.49,536.123 1975.5,484.812 1975.5,437 C1975.5,209 1975.5,209 1975.5,209 C1975.5,109.89 1252.17,103.24 983.988,104.18 " fill="none" style="stroke: #A80036; stroke-width: 1.0;"/><polygon fill="#A80036" points="978.904,104.2,987.9188,108.1665,983.904,104.1814,987.8891,100.1666,978.904,104.2" style="stroke: #A80036; stroke-width: 1.0;"/><text fill="#000000" font-family="sans-serif" font-size="13" lengthAdjust="spacingAndGlyphs" textLength="7" x="986.3615" y="101.1114">1</text></g></svg>